<svg xmlns="http://www.w3.org/2000/svg" width="1200" height="820" viewBox="0 0 1200 820">
<defs><linearGradient id="bg" x1="0" x2="1" y1="0" y2="1"><stop stop-color="#d1c4b5"/><stop offset="1" stop-color="#f2ebe1"/></linearGradient><filter id="s"><feDropShadow dx="0" dy="18" stdDeviation="18" flood-color="#001b2e" flood-opacity=".18"/></filter></defs>
<rect width="1200" height="820" fill="url(#bg)"/><rect x="0" y="0" width="1200" height="820" fill="#fff" opacity=".22"/>
<g opacity=".16" stroke="#18384a" stroke-width="3"><path d="M40 0v820"/><path d="M155 0v820"/><path d="M270 0v820"/><path d="M385 0v820"/><path d="M500 0v820"/><path d="M615 0v820"/><path d="M730 0v820"/><path d="M845 0v820"/><path d="M960 0v820"/><path d="M1075 0v820"/><path d="M1190 0v820"/><path d="M0 60h1200"/><path d="M0 165h1200"/><path d="M0 270h1200"/><path d="M0 375h1200"/><path d="M0 480h1200"/><path d="M0 585h1200"/><path d="M0 690h1200"/><path d="M0 795h1200"/></g>
<rect x="70" y="80" width="1060" height="565" rx="18" fill="#d6c9b8"/><rect x="110" y="120" width="360" height="480" fill="#443f38" opacity=".65"/><rect x="500" y="120" width="580" height="480" fill="#efe8de" opacity=".7"/><rect x="150" y="190" width="270" height="320" rx="10" fill="#ddd5c9"/><rect x="545" y="220" width="180" height="300" rx="10" fill="#8b887f" opacity=".5"/><ellipse cx="850" cy="500" rx="185" ry="54" fill="#fff"/><text x="170" y="300" font-family="Georgia" font-size="44" fill="#fff">SPACES</text><text x="170" y="356" font-family="Georgia" font-size="44" fill="#fff">THAT FEEL</text><text x="170" y="412" font-family="Georgia" font-size="44" fill="#fff">LIKE HOME</text><text x="64" y="760" font-family="Georgia,serif" font-size="44" font-weight="700" fill="#0b2f43">Modern Living</text><path d="M66 780h74" stroke="#b0842f" stroke-width="8"/></svg>